<svg x="0" y="0" width="48" height="48" version="1.1" xmlns="http://www.w3.org/2000/svg" xmlns:xlink="http://www.w3.org/1999/xlink"><defs><linearGradient x1="10.48942" y1="11.9906" x2="58.85192" y2="57.35075" gradientUnits="userSpaceOnUse" id="color-1"><stop offset="0" stop-color="#000000" stop-opacity="0.45"></stop><stop offset="1" stop-color="#000000" stop-opacity="0"></stop></linearGradient><filter id="dropshadow"><feColorMatrix type="matrix" values="0 0 0 0 .05  0 0 0 0 .15  0 0 0 0 .1  0 0 0 .8 0"></feColorMatrix> <feOffset dx="0" dy="1"></feOffset> <feGaussianBlur stdDeviation="1"></feGaussianBlur> <feComposite in="SourceGraphic"></feComposite></filter></defs><g fill="none" stroke="none" stroke-width="none" stroke-linecap="butt" stroke-linejoin="miter" stroke-miterlimit="none" stroke-dasharray="" stroke-dashoffset="0" font-family="none" font-weight="normal" font-size="none" text-anchor="start" mix-blend-mode="normal"><g fill="#000000" stroke="none" stroke-width="1" stroke-miterlimit="4" font-family="&quot;Open Sans&quot;, sans-serif" font-size="14"></g><path d="M3,24c0,-11.59798 9.40202,-21 21,-21c11.59798,0 21,9.40202 21,21c0,11.59798 -9.40202,21 -21,21c-11.59798,0 -21,-9.40202 -21,-21z" fill="#89c0ca" stroke-width="1" stroke-miterlimit="10" font-family="sans-serif" font-size="12" filter="url(#dropshadow)"></path><path d="M20.72776,44.74657l-10.23835,-10.23835l0,-12.0094l3.12245,-8.99204c0.30774,-0.88569 1.1484,-1.51618 2.13167,-1.51618l16.51293,0c0.62147,0 1.18597,0.25187 1.59495,0.66085l11.14763,11.14763c0.00063,0.0669 0.00094,0.13387 0.00094,0.20092c0,11.59798 -9.40202,21 -21,21c-1.1131,0 -2.20597,-0.0866 -3.27224,-0.25343z M10.48942,34.50823l10.23833,10.23833c-0.25176,-0.03939 -0.50203,-0.08325 -0.75074,-0.13151l-9.04662,-9.04662c-0.27209,-0.27209 -0.44098,-0.64738 -0.44098,-1.06021z" fill="url(#color-1)" stroke-width="1" stroke-miterlimit="10" font-family="sans-serif" font-size="12"></path><path d="M37.51058,22.49882l0,12.00941c0,0.82565 -0.66802,1.50118 -1.50118,1.50118l-1.50118,0c-0.82565,0 -1.50118,-0.67553 -1.50118,-1.50118l0,-1.50118l-18.01411,0l0,1.50118c0,0.82565 -0.66802,1.50118 -1.50118,1.50118l-1.50118,0c-0.82565,0 -1.50118,-0.67553 -1.50118,-1.50118l0,-12.00941l3.12245,-8.99204c0.30774,-0.88569 1.1484,-1.51619 2.13167,-1.51619l16.51293,0c0.98327,0 1.82393,0.63049 2.13167,1.51619z M34.50823,20.99765l-2.25176,-6.75529l-16.51293,0l-2.25176,6.75529z M17.9953,26.25176c0,-1.24598 -1.00579,-2.25176 -2.25176,-2.25176c-1.24598,0 -2.25176,1.00579 -2.25176,2.25176c0,1.24598 1.00579,2.25176 2.25176,2.25176c1.24598,0 2.25176,-1.00579 2.25176,-2.25176z M34.50823,26.25176c0,-1.24598 -1.00579,-2.25176 -2.25176,-2.25176c-1.24598,0 -2.25176,1.00579 -2.25176,2.25176c0,1.24598 1.00579,2.25176 2.25176,2.25176c1.24598,0 2.25176,-1.00579 2.25176,-2.25176z" fill="#ffffff" stroke="none" stroke-width="0" stroke-miterlimit="4" font-family="&quot;Open Sans&quot;, sans-serif" font-size="14"></path></g></svg>